<?xml version="1.0" encoding="UTF-8" standalone="no"?>
<!-- Created with Inkscape (http://www.inkscape.org/) -->

<svg
   width="210mm"
   height="135mm"
   viewBox="0 0 210 135"
   version="1.1"
   id="svg5498"
   inkscape:version="1.2.1 (9c6d41e410, 2022-07-14)"
   sodipodi:docname="drawing.svg"
   xmlns:inkscape="http://www.inkscape.org/namespaces/inkscape"
   xmlns:sodipodi="http://sodipodi.sourceforge.net/DTD/sodipodi-0.dtd"
   xmlns="http://www.w3.org/2000/svg"
   xmlns:svg="http://www.w3.org/2000/svg">
  <sodipodi:namedview
     id="namedview5500"
     pagecolor="#ffffff"
     bordercolor="#000000"
     borderopacity="0.25"
     inkscape:showpageshadow="2"
     inkscape:pageopacity="0.0"
     inkscape:pagecheckerboard="0"
     inkscape:deskcolor="#d1d1d1"
     inkscape:document-units="mm"
     showgrid="false"
     inkscape:zoom="1.0129245"
     inkscape:cx="320.85313"
     inkscape:cy="247.30372"
     inkscape:window-width="1920"
     inkscape:window-height="991"
     inkscape:window-x="-9"
     inkscape:window-y="-9"
     inkscape:window-maximized="1"
     inkscape:current-layer="layer1" />
  <defs
     id="defs5495" />
  <g
     inkscape:label="Layer 1"
     inkscape:groupmode="layer"
     id="layer1">
    <g
       id="g5493"
       transform="matrix(14.411099,0,0,14.411099,-63.38351,-12.025195)">
      <g
         aria-label="METRICA"
         id="text113-4"
         style="font-size:3.175px;font-family:'Century Gothic';-inkscape-font-specification:'Century Gothic, Normal';stroke-width:0.264583">
        <path
           d="M 5.0779688,6.5667558 5.40198,4.2862748 H 5.439187 L 6.3662622,6.1574784 7.2840356,4.2862748 h 0.037207 l 0.3271118,2.280481 H 7.423562 L 7.2003198,4.9358476 6.3941675,6.5667558 H 6.3368067 L 5.5198023,4.9234452 5.2981104,6.5667558 Z"
           id="path5421" />
        <path
           d="m 8.1010401,4.2862748 h 1.306897 V 4.5110673 H 8.3289332 V 5.2242021 H 9.3986353 V 5.4474443 H 8.3289332 v 0.894519 H 9.3986353 V 6.5667558 H 8.1010401 Z"
           id="path5423" />
        <path
           d="M 9.5753687,4.5079667 V 4.2862748 H 10.826455 V 4.5079667 H 10.317959 V 6.5667558 H 10.085415 V 4.5079667 Z"
           id="path5425" />
        <path
           d="m 11.165969,4.2862748 h 0.454236 q 0.379822,0 0.514697,0.031006 0.203089,0.046509 0.330213,0.1999878 0.127124,0.1519287 0.127124,0.3751709 0,0.1860351 -0.08837,0.3271118 -0.08682,0.1410767 -0.249597,0.2139404 -0.162781,0.071313 -0.449585,0.072864 l 0.820105,1.0604004 H 12.342641 L 11.524087,5.5063554 h -0.130225 v 1.0604004 h -0.227893 z m 0.227893,0.2232422 v 0.7751465 l 0.392224,0.0031 q 0.227893,0 0.336414,-0.043408 0.110071,-0.043408 0.170532,-0.1379761 0.06201,-0.096118 0.06201,-0.2139404 0,-0.1147217 -0.06201,-0.2077393 Q 12.23102,4.5901323 12.130251,4.5498246 12.029482,4.509517 11.795388,4.509517 Z"
           id="path5427" />
        <path
           d="m 13.048025,4.2862748 h 0.227893 v 2.280481 h -0.227893 z"
           id="path5429" />
        <path
           d="m 15.922268,4.7095048 -0.179834,0.1379761 q -0.148828,-0.1937866 -0.358117,-0.2930054 -0.20774,-0.100769 -0.457337,-0.100769 -0.272851,0 -0.505395,0.1317749 -0.232544,0.1302246 -0.361219,0.3519165 -0.127124,0.2201416 -0.127124,0.4960937 0,0.4170288 0.285254,0.6960816 0.286805,0.2790527 0.722437,0.2790527 0.47904,0 0.801501,-0.3751709 l 0.179834,0.1364258 q -0.170532,0.217041 -0.42633,0.3364135 -0.254248,0.1178223 -0.568958,0.1178223 -0.598413,0 -0.944128,-0.3984253 -0.289905,-0.3364135 -0.289905,-0.8123535 0,-0.5007446 0.350366,-0.841809 0.351917,-0.3426148 0.880567,-0.3426148 0.31936,0 0.576709,0.127124 0.257348,0.1255738 0.421679,0.3534668 z"
           id="path5431" />
        <path
           d="m 17.311331,4.2862748 1.063501,2.280481 H 18.129885 L 17.771768,5.816414 h -0.982886 l -0.356567,0.7503418 h -0.254248 l 1.077453,-2.280481 z m -0.02791,0.4836914 -0.392225,0.8263062 h 0.779798 z"
           id="path5433" />
      </g>
      <path
         style="fill:#000000;stroke-width:0.246719;stroke-dasharray:none"
         d="M 25.010604,4.6364305 V 6.5628347"
         id="path502"
         transform="matrix(1.0109903,0,0,1.0156151,-11.860426,0.14853358)" />
      <path
         style="fill:#000000;stroke:#000000;stroke-width:0.181647;stroke-dasharray:none;stroke-opacity:1"
         d="m 20.232773,7.0742902 h 4.613842"
         id="path1308"
         transform="matrix(1.0109903,0,0,1.0156151,-11.860426,0.14853358)" />
      <path
         style="fill:#000000;stroke:#000000;stroke-width:0.225007;stroke-dasharray:none;stroke-opacity:1"
         d="M 24.750399,6.2324556 V 9.5101183"
         id="path2929"
         transform="matrix(1.0109903,0,0,1.0156151,-11.860426,0.14853358)" />
      <path
         style="fill:#000000;stroke:#000000;stroke-width:0.224939;stroke-dasharray:none;stroke-opacity:1"
         d="M 8.7643228,4.0018229 V 1.2567708"
         id="path2927" />
    </g>
  </g>
</svg>
